<?xml version="1.0" encoding="utf-8"?>
<!-- Generator: Adobe Illustrator 22.1.0, SVG Export Plug-In . SVG Version: 6.00 Build 0)  -->
<svg version="1.1" id="图层_1" xmlns="http://www.w3.org/2000/svg" xmlns:xlink="http://www.w3.org/1999/xlink" x="0px" y="0px"
	 viewBox="0 0 65 83" style="enable-background:new 0 0 65 83;" xml:space="preserve">
<style type="text/css">
	.st0{fill:#FFA415;}
	.st1{fill:#FFFFFF;}
</style>
<g>
	<g>
		<g>
			<path class="st0" d="M64.7,82.6H5c-2.6,0-4.8-2.1-4.8-4.8V7.7c0-4,3.3-7.3,7.3-7.3h57.2V82.6z"/>
		</g>
		<path class="st1" d="M5.7,75.1h59.1v-2.5c0,0,0,0,0,0H6.5c-2.1,0-3.7,1.7-3.7,3.7s1.7,3.7,3.7,3.7h58.2c0,0,0,0,0,0v-2.5H5.7
			c-0.7,0-1.2-0.5-1.2-1.2v-0.1C4.4,75.6,5,75.1,5.7,75.1z"/>
	</g>
	<g>
		<path class="st1" d="M15.8,23.8v16.1c0,1.1,0.9,2.1,2.1,2.1h11.3c1.1,0,2.1-0.9,2.1-2.1V23.8c0-1.1-0.9-2.1-2.1-2.1H17.8
			C16.7,21.7,15.8,22.6,15.8,23.8z M27.1,39.5h-7.2c-0.9,0-1.6-0.7-1.6-1.6V25.8c0-0.9,0.7-1.6,1.6-1.6h7.2c0.9,0,1.6,0.7,1.6,1.6
			v12.1C28.7,38.8,28,39.5,27.1,39.5z"/>
		<path class="st1" d="M33.2,37.9v15.2c0,1.1,1,1.9,2.2,1.9h11.8c1.2,0,2.2-0.9,2.2-1.9V37.9c0-1.1-1-1.9-2.2-1.9H35.4
			C34.2,35.9,33.2,36.8,33.2,37.9z M45.1,52.6h-7.7c-1,0-1.7-0.7-1.7-1.5V39.9c0-0.8,0.8-1.5,1.7-1.5h7.7c1,0,1.7,0.7,1.7,1.5v11.2
			C46.9,51.9,46.1,52.6,45.1,52.6z"/>
		<path class="st1" d="M47.7,21.7H34.8c-0.9,0-1.6,0.8-1.6,1.7v9.2c0,0.9,0.7,1.7,1.6,1.7h12.8c0.9,0,1.6-0.8,1.6-1.7v-9.2
			C49.3,22.5,48.6,21.7,47.7,21.7z M35.7,30.6v-5.3c0-0.7,0.5-1.2,1.2-1.2h8.8c0.7,0,1.2,0.5,1.2,1.2v5.3c0,0.7-0.5,1.2-1.2,1.2
			h-8.8C36.2,31.8,35.7,31.3,35.7,30.6z"/>
		<path class="st1" d="M29.6,44.1H17.3c-0.9,0-1.6,0.7-1.6,1.5v8.1c0,0.8,0.7,1.5,1.6,1.5h12.3c0.9,0,1.6-0.7,1.6-1.5v-8.1
			C31.2,44.8,30.5,44.1,29.6,44.1z M18.2,51.8v-4.2c0-0.5,0.5-1,1.1-1h8.3c0.6,0,1.1,0.4,1.1,1v4.2c0,0.5-0.5,1-1.1,1h-8.3
			C18.7,52.7,18.2,52.3,18.2,51.8z"/>
	</g>
</g>
</svg>
