<?xml version="1.0" encoding="utf-8"?>
<!-- Generator: Adobe Illustrator 22.1.0, SVG Export Plug-In . SVG Version: 6.00 Build 0)  -->
<svg version="1.1" id="图层_1" xmlns="http://www.w3.org/2000/svg" xmlns:xlink="http://www.w3.org/1999/xlink" x="0px" y="0px"
	 viewBox="0 0 65 83" style="enable-background:new 0 0 65 83;" xml:space="preserve">
<style type="text/css">
	.st0{fill:#2DBCFF;}
	.st1{fill:#FFFFFF;}
</style>
<g>
	<g>
		<g>
			<path class="st0" d="M64.8,82.6H5.1c-2.6,0-4.8-2.1-4.8-4.8V7.7c0-4,3.3-7.3,7.3-7.3h57.2V82.6z"/>
		</g>
		<path class="st1" d="M5.7,75h59.1v-2.5c0,0,0,0,0,0H6.6c-2.1,0-3.7,1.7-3.7,3.7s1.7,3.7,3.7,3.7h58.2c0,0,0,0,0,0v-2.5H5.7
			c-0.7,0-1.2-0.5-1.2-1.2v-0.1C4.5,75.6,5,75,5.7,75z"/>
	</g>
	<g>
		<path class="st1" d="M44.3,33.5C44.3,33.5,44.2,33.5,44.3,33.5l-3-3c-0.5-0.5-1.3-0.5-1.8,0s-0.5,1.3,0,1.8l2.1,2.1l-2.1,2.1
			c-0.5,0.5-0.5,1.3,0,1.8c0.5,0.5,1.3,0.5,1.8,0l3-3c0,0,0,0,0,0c0.2-0.2,0.4-0.6,0.4-0.9C44.6,34.1,44.5,33.7,44.3,33.5z"/>
		<path class="st1" d="M25.3,30.5c-0.5-0.5-1.3-0.5-1.8,0l-3,3c0,0,0,0,0,0c-0.2,0.2-0.4,0.6-0.4,0.9c0,0.3,0.1,0.7,0.4,0.9
			c0,0,0,0,0,0l3,3c0.5,0.5,1.3,0.5,1.8,0c0.5-0.5,0.5-1.3,0-1.8l-2.1-2.1l2.1-2.1C25.8,31.8,25.8,31,25.3,30.5z"/>
		<path class="st1" d="M35,30.1c-0.6-0.4-1.4-0.2-1.7,0.4l-3.9,6.5c-0.4,0.6-0.2,1.4,0.4,1.7c0.6,0.4,1.4,0.2,1.7-0.4l3.9-6.5
			C35.8,31.3,35.6,30.5,35,30.1z"/>
		<path class="st1" d="M51.4,19.6c-0.2-0.1-0.3-0.1-0.5-0.1H14.2c0,0,0,0,0,0h0c-0.7,0-1.2,0.6-1.2,1.2v27.9c0,0.5,0.3,1,0.8,1.1
			c0.2,0.1,0.3,0.1,0.5,0.1h14v5h-3.3c-0.7,0-1.3,0.6-1.3,1.3s0.6,1.3,1.3,1.3H40c0.7,0,1.3-0.6,1.3-1.3s-0.6-1.3-1.3-1.3h-3.4v-5
			l14.3,0c0.7,0,1.2-0.6,1.2-1.2V20.8C52.1,20.3,51.8,19.8,51.4,19.6z M15.5,47.4V22.1h34.1v25.3H15.5z M34.1,54.9h-3.4v-5h3.4V54.9
			z"/>
	</g>
</g>
</svg>
