<?xml version="1.0" encoding="utf-8"?>
<!-- Generator: Adobe Illustrator 22.1.0, SVG Export Plug-In . SVG Version: 6.00 Build 0)  -->
<svg version="1.1" id="图层_1" xmlns="http://www.w3.org/2000/svg" xmlns:xlink="http://www.w3.org/1999/xlink" x="0px" y="0px"
	 viewBox="0 0 65 83" style="enable-background:new 0 0 65 83;" xml:space="preserve">
<style type="text/css">
	.st0{fill:#39BA5D;}
	.st1{fill:#FFFFFF;}
</style>
<g>
	<path class="st0" d="M64.8,4c0-2-1.4-3.7-3.2-3.7l-14.8,0l0,0H3.6C1.8,0.2,0.3,2,0.3,4.1v74.8c0,2.1,1.5,3.9,3.3,3.9h57.9
		c1.8,0,3.3-1.7,3.3-3.9V21.7l0,0L64.8,4z"/>
	<g>
		<path class="st1" d="M53.2,48.8h-0.3V25.6h0.3c0.7,0,1.3-0.6,1.3-1.2c0-0.7-0.6-1.2-1.3-1.2H11.3c-0.7,0-1.3,0.6-1.3,1.2
			c0,0.7,0.6,1.2,1.3,1.2h0.1v23.1h-0.1c-0.7,0-1.3,0.6-1.3,1.2c0,0.7,0.6,1.2,1.3,1.2H31v6.1h-3c-0.7,0-1.3,0.6-1.3,1.2
			c0,0.7,0.6,1.2,1.3,1.2h8.5c0.7,0,1.3-0.6,1.3-1.2c0-0.7-0.6-1.2-1.3-1.2h-3v-6.1h19.7c0.7,0,1.3-0.6,1.3-1.2
			C54.5,49.3,53.9,48.8,53.2,48.8z M13.9,25.6h36.5v23.1H13.9V25.6z"/>
		<path class="st1" d="M44.2,39.9l-6.5-6.4c-0.5-0.5-1.3-0.5-1.8,0L35,34.4l0,0L30.3,39l-3.9-3.9c-0.2-0.2-0.6-0.4-0.9-0.4
			c-0.3,0-0.7,0.1-0.9,0.4l-4.7,4.7c-0.5,0.5-0.5,1.3,0,1.8c0.5,0.5,1.3,0.5,1.8,0l3.8-3.8l3.9,3.9c0.5,0.5,1.3,0.5,1.8,0v0
			c0,0,0,0,0,0l5.6-5.5l5.6,5.5c0.5,0.5,1.3,0.5,1.8,0C44.7,41.2,44.7,40.4,44.2,39.9z"/>
	</g>
</g>
</svg>
