<?xml version="1.0" encoding="utf-8"?>
<!-- Generator: Adobe Illustrator 22.1.0, SVG Export Plug-In . SVG Version: 6.00 Build 0)  -->
<svg version="1.1" id="图层_1" xmlns="http://www.w3.org/2000/svg" xmlns:xlink="http://www.w3.org/1999/xlink" x="0px" y="0px"
	 viewBox="0 0 65 83" style="enable-background:new 0 0 65 83;" xml:space="preserve">
<style type="text/css">
	.st0{fill:#4E8AF9;}
	.st1{fill:#FFFFFF;}
</style>
<g>
	<g>
		<g>
			<path class="st0" d="M64.7,82.5H5c-2.6,0-4.8-2.1-4.8-4.8V7.6c0-4,3.3-7.3,7.3-7.3h57.2V82.5z"/>
		</g>
		<path class="st1" d="M5.6,75h59.1v-2.5c0,0,0,0,0,0H6.5c-2.1,0-3.7,1.7-3.7,3.7S4.5,80,6.5,80h58.2c0,0,0,0,0,0v-2.5H5.6
			c-0.7,0-1.2-0.5-1.2-1.2v-0.1C4.4,75.5,5,75,5.6,75z"/>
	</g>
	<g>
		<path class="st1" d="M54.6,28.1h-10c-0.7,0-1.2-0.5-1.2-1.2v0c0-0.7,0.5-1.2,1.2-1.2h10c0.7,0,1.2,0.5,1.2,1.2v0
			C55.8,27.6,55.3,28.1,54.6,28.1z"/>
		<path class="st1" d="M54.6,40.8h-10c-0.7,0-1.2-0.5-1.2-1.2v0c0-0.7,0.5-1.2,1.2-1.2h10c0.7,0,1.2,0.5,1.2,1.2v0
			C55.8,40.3,55.3,40.8,54.6,40.8z"/>
		<path class="st1" d="M54.6,53.5h-10c-0.7,0-1.2-0.5-1.2-1.2l0,0c0-0.7,0.5-1.2,1.2-1.2h10c0.7,0,1.2,0.5,1.2,1.2l0,0
			C55.8,52.9,55.3,53.5,54.6,53.5z"/>
		<path class="st1" d="M25.5,24.5c1.7,0,3.4,0.7,4.6,1.9c1.2,1.2,1.9,2.9,1.9,4.6c0,1.7-0.7,3.4-1.9,4.6c-1.2,1.2-2.9,1.9-4.6,1.9
			s-3.4-0.7-4.6-1.9c-1.2-1.2-1.9-2.9-1.9-4.6c0-1.7,0.7-3.4,1.9-4.6C22.1,25.2,23.7,24.5,25.5,24.5 M25.5,22.1c-5,0-9,4-9,9
			s4,9,9,9s9-4,9-9S30.4,22.1,25.5,22.1z M35.4,45.2c2,0,3.6,1.6,3.6,3.6c0,2-1.6,3.6-3.6,3.6H15.5c-2,0-3.6-1.6-3.6-3.6
			c0-2,1.6-3.6,3.6-3.6H35.4 M35.8,42.7H15.1c-3.3,0-6,2.7-6,6s2.7,6,6,6h20.6c3.3,0,6-2.7,6-6C41.8,45.4,39.1,42.7,35.8,42.7
			L35.8,42.7z"/>
	</g>
</g>
</svg>
